<svg xmlns="http://www.w3.org/2000/svg" viewBox="0 0 105.01 83.65"><defs><style>.cls-1{fill:#bababa;}</style></defs><title>icon-visitor1</title><g id="Layer_2" data-name="Layer 2"><g id="レイヤー_1" data-name="レイヤー 1"><path class="cls-1" d="M102.43,47.8a3.86,3.86,0,0,0,2.19-3.48v-5a3.84,3.84,0,0,0-2.19-3.48l2.58-34A1.63,1.63,0,0,0,103.55,0h-17a1.63,1.63,0,0,0-1.46,1.87l.14,1.85H19.74l.14-1.85A1.63,1.63,0,0,0,18.42,0h-17A1.63,1.63,0,0,0,0,1.87l2.57,34A3.84,3.84,0,0,0,.39,39.33v5A3.86,3.86,0,0,0,2.58,47.8L0,81.78a1.63,1.63,0,0,0,1.46,1.87h17a1.63,1.63,0,0,0,1.46-1.87l-.14-1.85H85.27l-.14,1.85a1.63,1.63,0,0,0,1.46,1.87h17A1.64,1.64,0,0,0,105,81.78Zm-1.67-8.47v5H89.37v-5Zm-85.12,0v5H4.25v-5Zm34.94-1.51h-3a1.24,1.24,0,0,0-1.24,1.24v5.53a1.25,1.25,0,0,0,1.24,1.24h3V72H19.14L17.31,47.8a3.88,3.88,0,0,0,2.19-3.48v-5a3.86,3.86,0,0,0-2.19-3.48l1.83-24.2H50.58ZM85.87,72H54.44V11.65H85.87l1.83,24.2a3.86,3.86,0,0,0-2.19,3.48v5A3.88,3.88,0,0,0,87.7,47.8Z"/></g></g></svg>