<svg xmlns="http://www.w3.org/2000/svg" viewBox="0 0 98.3 110.18"><defs><style>.cls-1{fill:#bababa;}</style></defs><title>icon-visitor5</title><g id="Layer_2" data-name="Layer 2"><g id="レイヤー_1" data-name="レイヤー 1"><path class="cls-1" d="M97.41,34.38c-11.09-2-19-4.32-24.08-9.41S66,12,63.92.89A1.09,1.09,0,0,0,62.85,0a1.07,1.07,0,0,0-1.06.89c-2,11.09-4.33,19-9.42,24.08s-13,7.37-24.08,9.41a1.1,1.1,0,0,0-.89,1.07,1.08,1.08,0,0,0,.89,1.06c11.09,2,19,4.33,24.08,9.42s7.38,13,9.42,24.08a1.08,1.08,0,0,0,1.06.89A1.1,1.1,0,0,0,63.92,70c2-11.1,4.32-19,9.41-24.08s13-7.38,24.08-9.42a1.07,1.07,0,0,0,.89-1.06A1.09,1.09,0,0,0,97.41,34.38Z"/><path class="cls-1" d="M54.12,82c-8.57-1.58-14.68-3.35-18.61-7.28s-5.71-10-7.28-18.62a.84.84,0,0,0-1.65,0C25,64.63,23.24,70.74,19.3,74.67S9.26,80.37.68,82a.83.83,0,0,0,0,1.64c8.58,1.58,14.69,3.35,18.62,7.28s5.7,10,7.28,18.62a.84.84,0,0,0,1.65,0c1.57-8.58,3.34-14.68,7.28-18.62s10-5.7,18.61-7.28a.83.83,0,0,0,0-1.64Z"/></g></g></svg>