<svg xmlns="http://www.w3.org/2000/svg" viewBox="0 0 124.47 88.26"><defs><style>.cls-1{fill:#bababa;}</style></defs><title>icon-visitor8</title><g id="Layer_2" data-name="Layer 2"><g id="レイヤー_1" data-name="レイヤー 1"><circle class="cls-1" cx="62.24" cy="7.55" r="7.55" transform="translate(45.29 67.91) rotate(-81.24)"/><circle class="cls-1" cx="101.26" cy="20.86" r="7.55" transform="translate(64.29 117.41) rotate(-80.68)"/><circle class="cls-1" cx="23.21" cy="20.86" r="7.55" transform="translate(-3.07 4.03) rotate(-9.32)"/><circle class="cls-1" cx="112.87" cy="50.94" r="7.55"/><circle class="cls-1" cx="11.61" cy="50.94" r="7.55"/><path class="cls-1" d="M73.84,29.06v-4a7.8,7.8,0,0,0-7.8-7.8H58.43a7.8,7.8,0,0,0-7.8,7.8v4Z"/><path class="cls-1" d="M21.08,63.1a7.77,7.77,0,0,0-5.67-2.45H7.8A7.8,7.8,0,0,0,0,68.45V82.29H14.43Z"/><path class="cls-1" d="M116.67,60.65h-7.6a7.75,7.75,0,0,0-5.67,2.45l6.65,19.19h14.42V68.45A7.8,7.8,0,0,0,116.67,60.65Z"/><path class="cls-1" d="M89,32.75H35.51L16.27,88.26H108.2Zm-39.1,16.5,2.39-10.42h20l2.39,10.42Z"/><path class="cls-1" d="M101.69,52.2a10.41,10.41,0,0,1-.07-1.26,11.27,11.27,0,0,1,11.25-11.25h0V38.37a7.81,7.81,0,0,0-7.8-7.81H97.46a7.8,7.8,0,0,0-4.78,1.64l6.94,20Z"/><path class="cls-1" d="M11.61,39.69A11.27,11.27,0,0,1,22.86,50.94a10.39,10.39,0,0,1-.08,1.26h2.08l6.93-20A7.8,7.8,0,0,0,27,30.56h-7.6a7.81,7.81,0,0,0-7.8,7.81v1.32Z"/><path class="cls-1" d="M39.13,77.39h7.68v2.53H35.2V78.08l7.54-10.87H35.21V64.67H46.65v1.8Z"/><path class="cls-1" d="M47.9,74.15a6.76,6.76,0,0,1,.65-3,4.8,4.8,0,0,1,1.87-2,5.5,5.5,0,0,1,2.84-.72A5.13,5.13,0,0,1,57,69.78a5.63,5.63,0,0,1,1.62,3.81l0,.78a5.91,5.91,0,0,1-1.46,4.18,5.06,5.06,0,0,1-3.9,1.58,5.13,5.13,0,0,1-3.92-1.57,6.05,6.05,0,0,1-1.46-4.28Zm3,.21a4.19,4.19,0,0,0,.61,2.47,2.18,2.18,0,0,0,3.46,0,4.64,4.64,0,0,0,.61-2.7A4.21,4.21,0,0,0,55,71.69a2,2,0,0,0-1.74-.87,2,2,0,0,0-1.72.86A4.68,4.68,0,0,0,50.93,74.36Z"/><path class="cls-1" d="M60,74.15a6.76,6.76,0,0,1,.65-3,4.8,4.8,0,0,1,1.87-2,5.5,5.5,0,0,1,2.84-.72,5.13,5.13,0,0,1,3.74,1.4,5.63,5.63,0,0,1,1.62,3.81l0,.78a5.91,5.91,0,0,1-1.46,4.18,5.06,5.06,0,0,1-3.9,1.58,5.13,5.13,0,0,1-3.92-1.57A6.05,6.05,0,0,1,60,74.28Zm3,.21a4.19,4.19,0,0,0,.61,2.47,2.18,2.18,0,0,0,3.46,0,4.64,4.64,0,0,0,.61-2.7,4.21,4.21,0,0,0-.61-2.45,2,2,0,0,0-1.74-.87,2,2,0,0,0-1.72.86A4.68,4.68,0,0,0,63.06,74.36Z"/><path class="cls-1" d="M75.47,68.59l.1,1.26a4,4,0,0,1,3.26-1.47,3,3,0,0,1,3,1.72,3.9,3.9,0,0,1,3.41-1.72A3.37,3.37,0,0,1,88,69.45a4.94,4.94,0,0,1,.9,3.23v7.24h-3V72.69a2.18,2.18,0,0,0-.37-1.41,1.71,1.71,0,0,0-1.33-.44,1.89,1.89,0,0,0-1.89,1.3v7.78h-3V72.7a2.17,2.17,0,0,0-.38-1.42,1.67,1.67,0,0,0-1.32-.44,2,2,0,0,0-1.87,1.07v8h-3V68.59Z"/></g></g></svg>