<svg xmlns="http://www.w3.org/2000/svg" viewBox="0 0 86.78 77.61"><defs><style>.cls-1{fill:#bababa;}</style></defs><title>icon-visitor6</title><g id="Layer_2" data-name="Layer 2"><g id="レイヤー_1" data-name="レイヤー 1"><path class="cls-1" d="M76.12,58.89a4.71,4.71,0,0,1,1-3.32c4.12-5.63,14.89-21.67,6.49-38.49a31.9,31.9,0,0,0-7.59-10l-.33-.28c-.46-.39-.93-.76-1.4-1.11l-.54-.39c-.38-.26-.76-.52-1.14-.76L71.87,4q-.48-.29-1-.54l-.65-.34q-.67-.33-1.35-.63l-.59-.24c-.49-.2-1-.4-1.49-.57l-.2-.06c-.56-.19-1.13-.36-1.69-.52h0A35.62,35.62,0,0,0,50.55.41c-10,1.48-21.21,9.6-22.4,19.47A35.73,35.73,0,0,0,28,27.76c.28,3-.87,3.85-2.17,6.87-1.09,2.52-1.59,3.93-2.78,6.95C22,44.2,25.3,44.76,27.45,45.51c.91.33,1.93.48,2.47.68.34.13.45.36.3,1.21a3.09,3.09,0,0,1-.63,1.39,1.08,1.08,0,0,0-.26,1.11c.34,1.14,4.73.55,5.59,2.62.38.93-6.68.37-5.16,2.72a5.51,5.51,0,0,1,.56,3.52,4.54,4.54,0,0,0,1.87,5.32c1.26,1,3.88.73,5.75.77,3.74.06,6.91-.1,8.51,0a3,3,0,0,1,.47,0c1,.29,1.76,1.54,2.49,4.6A67.29,67.29,0,0,1,51,77.61l26.29-8.84,1.38-.46h0A41,41,0,0,1,76.12,58.89Z"/><path class="cls-1" d="M24.15,53.13a1.61,1.61,0,0,0-1.58-1.31,1.32,1.32,0,0,0,0,2.62A1.6,1.6,0,0,0,24.15,53.13Z"/><path class="cls-1" d="M17,53.13a1.61,1.61,0,0,0-1.58-1.31,1.32,1.32,0,0,0,0,2.62A1.61,1.61,0,0,0,17,53.13Z"/><path class="cls-1" d="M9.9,53.13a1.61,1.61,0,0,0-1.58-1.31,1.32,1.32,0,0,0,0,2.62A1.6,1.6,0,0,0,9.9,53.13Z"/><path class="cls-1" d="M1.2,51.82a1.32,1.32,0,0,0,0,2.62,1.6,1.6,0,0,0,1.58-1.31A1.61,1.61,0,0,0,1.2,51.82Z"/><path class="cls-1" d="M24.23,57.39l0,0a1.67,1.67,0,0,0-1.79-.16,1.31,1.31,0,0,0,1.27,2.29,1.59,1.59,0,0,0,.74-1.91A.76.76,0,0,0,24.23,57.39Z"/><path class="cls-1" d="M18,60.84l0,0a1.69,1.69,0,0,0-1.8-.17A1.32,1.32,0,0,0,17.45,63,1.59,1.59,0,0,0,18.2,61,.76.76,0,0,0,18,60.84Z"/><path class="cls-1" d="M11.77,64.28l0,0A1.69,1.69,0,0,0,10,64.1a1.32,1.32,0,0,0,1.27,2.3A1.62,1.62,0,0,0,12,64.48,1.26,1.26,0,0,0,11.77,64.28Z"/><path class="cls-1" d="M5.53,67.73l0,0a1.71,1.71,0,0,0-1.8-.16,1.19,1.19,0,0,0-.41,1.72A1.19,1.19,0,0,0,5,69.84a1.58,1.58,0,0,0,.75-1.91A.76.76,0,0,0,5.53,67.73Z"/><path class="cls-1" d="M23.69,46.76a1.31,1.31,0,0,0-1.27,2.29,1.67,1.67,0,0,0,1.79-.16,0,0,0,0,0,0,0,.76.76,0,0,0,.2-.2A1.59,1.59,0,0,0,23.69,46.76Z"/><path class="cls-1" d="M17.45,43.31a1.32,1.32,0,0,0-1.27,2.3,1.69,1.69,0,0,0,1.8-.17l0,0c.07-.06.16-.11.2-.2A1.59,1.59,0,0,0,17.45,43.31Z"/><path class="cls-1" d="M11.22,39.86A1.32,1.32,0,0,0,10,42.16,1.69,1.69,0,0,0,11.74,42l0,0a1.26,1.26,0,0,0,.2-.2A1.62,1.62,0,0,0,11.22,39.86Z"/><path class="cls-1" d="M5,36.42A1.19,1.19,0,0,0,3.3,37a1.19,1.19,0,0,0,.41,1.72,1.69,1.69,0,0,0,1.8-.16l0,0a.76.76,0,0,0,.2-.2A1.58,1.58,0,0,0,5,36.42Z"/></g></g></svg>