<svg xmlns="http://www.w3.org/2000/svg" viewBox="0 0 153.04 47.76"><defs><style>.cls-1{fill:#bababa;}</style></defs><title>icon-visitor4</title><g id="Layer_2" data-name="Layer 2"><g id="レイヤー_1" data-name="レイヤー 1"><circle class="cls-1" cx="19.17" cy="9.07" r="9.07"/><path class="cls-1" d="M28.54,20.6H9.8A9.8,9.8,0,0,0,0,30.4V46.25a1.52,1.52,0,0,0,1.51,1.51h4A1.51,1.51,0,0,0,7,46.25V31.89H8.79V47a.76.76,0,0,0,.76.76H28.8a.76.76,0,0,0,.75-.76V31.89h1.81V46.25a1.51,1.51,0,0,0,1.51,1.51h4a1.51,1.51,0,0,0,1.51-1.51V30.4A9.8,9.8,0,0,0,28.54,20.6Z"/><circle class="cls-1" cx="133.87" cy="9.07" r="9.07"/><path class="cls-1" d="M143.24,20.6H124.5a9.8,9.8,0,0,0-9.8,9.8V46.25a1.52,1.52,0,0,0,1.51,1.51h4a1.51,1.51,0,0,0,1.51-1.51V31.89h1.81V47a.76.76,0,0,0,.76.76H143.5a.76.76,0,0,0,.75-.76V31.89h1.81V46.25a1.52,1.52,0,0,0,1.51,1.51h4A1.51,1.51,0,0,0,153,46.25V30.4A9.8,9.8,0,0,0,143.24,20.6Z"/><rect class="cls-1" x="83.32" y="29.29" width="6.58" height="3.95"/><rect class="cls-1" x="74.11" y="29.29" width="6.58" height="3.95"/><rect class="cls-1" x="64.89" y="29.29" width="6.58" height="3.95"/><polygon class="cls-1" points="56.12 25.08 44.38 31.26 56.12 37.45 56.12 33.24 62.26 33.24 62.26 29.29 56.12 29.29 56.12 25.08"/><polygon class="cls-1" points="96.92 29.29 92.54 29.29 92.54 33.24 96.92 33.24 96.92 37.45 108.66 31.26 96.92 25.08 96.92 29.29"/></g></g></svg>