<svg xmlns="http://www.w3.org/2000/svg" viewBox="0 0 117.96 96.43"><defs><style>.cls-1{fill:#bababa;}</style></defs><title>icon-visitor9</title><g id="Layer_2" data-name="Layer 2"><g id="レイヤー_1" data-name="レイヤー 1"><path class="cls-1" d="M3.93,12.73h7.69v2.52H0V13.41L7.54,2.54H0V0H11.45V1.8Z"/><path class="cls-1" d="M12.71,9.48a6.66,6.66,0,0,1,.65-3,4.68,4.68,0,0,1,1.87-2,5.44,5.44,0,0,1,2.83-.72,5.16,5.16,0,0,1,3.74,1.4,5.63,5.63,0,0,1,1.62,3.81l0,.78A5.91,5.91,0,0,1,22,13.88a5,5,0,0,1-3.91,1.58,5.07,5.07,0,0,1-3.91-1.57,6,6,0,0,1-1.46-4.27Zm3,.21a4.32,4.32,0,0,0,.61,2.48,2.19,2.19,0,0,0,3.46,0,4.69,4.69,0,0,0,.62-2.71A4.2,4.2,0,0,0,19.8,7a2.16,2.16,0,0,0-3.46,0A4.76,4.76,0,0,0,15.73,9.69Z"/><path class="cls-1" d="M24.84,9.48a6.66,6.66,0,0,1,.65-3,4.68,4.68,0,0,1,1.87-2,5.44,5.44,0,0,1,2.83-.72,5.16,5.16,0,0,1,3.74,1.4,5.63,5.63,0,0,1,1.62,3.81l0,.78a5.91,5.91,0,0,1-1.45,4.18,5,5,0,0,1-3.91,1.58,5.07,5.07,0,0,1-3.91-1.57,6,6,0,0,1-1.46-4.27Zm3,.21a4.32,4.32,0,0,0,.61,2.48,2.19,2.19,0,0,0,3.46,0,4.7,4.7,0,0,0,.61-2.71A4.21,4.21,0,0,0,31.93,7a2.16,2.16,0,0,0-3.46,0A4.76,4.76,0,0,0,27.86,9.69Z"/><path class="cls-1" d="M40.28,3.92l.09,1.26a4,4,0,0,1,3.26-1.47,3,3,0,0,1,3,1.73A3.88,3.88,0,0,1,50,3.71a3.39,3.39,0,0,1,2.74,1.07A4.94,4.94,0,0,1,53.68,8v7.24h-3V8a2.18,2.18,0,0,0-.38-1.41,1.7,1.7,0,0,0-1.33-.44,1.89,1.89,0,0,0-1.89,1.3v7.78H44V8a2.11,2.11,0,0,0-.39-1.42,1.7,1.7,0,0,0-1.32-.44,2,2,0,0,0-1.87,1.07v8h-3V3.92Z"/><path class="cls-1" d="M40.45,49v0h4.17V62.47l4.81-4.3V47.57h0v-.69h0v0H46.24L55.75,27.5l5.62-11.38L77.31,47v7.68l4.29.76.74.13h0v-8h25.74V59.85h0v0a9.6,9.6,0,0,1,4.55-1.15h.26V47.57h3.24l1.46,0v0h0L98.76,11H95.27V3.23H82.44V11h-24L40.87,46.85l-.34.72-.08.14V49Zm45.84-28.4V7.08h5.13V20.57Z"/><polygon class="cls-1" points="65.95 46.39 65.95 36.18 58.09 36.18 58.09 46.3 58.09 46.36 58.09 46.36 58.09 46.39 65.95 46.39"/><path class="cls-1" d="M116.41,64.65a5.27,5.27,0,0,0-3.49-1.54,1.1,1.1,0,0,0-.26,0,5.34,5.34,0,0,0-3.06,1l-1.49,1.08L96.35,73.68l-5.07,3.68a7.23,7.23,0,0,1-2.6,1.13H85.74l-.41-.1-15.5-4.34a2.9,2.9,0,0,1-2-2.3l-.16-1.09a2.81,2.81,0,0,1,2.78-3.2h.26l6.62.63,2.65.25.52,0A5.33,5.33,0,0,0,82.37,68,5.53,5.53,0,0,0,86,62.22a2.19,2.19,0,0,0-1.81-1.93L82.37,60l-5.06-.88L64.82,56.92A13.11,13.11,0,0,0,53.89,60l-4.46,4-4.81,4.29L32.61,79a3.52,3.52,0,0,0-.48,4.76L40.48,95a3.55,3.55,0,0,0,5.1.61l8.11-6.7a7.86,7.86,0,0,1,5-1.78,7.28,7.28,0,0,1,2,.26l23.43,6.09a6.74,6.74,0,0,0,1.78.23A6.94,6.94,0,0,0,90,92.31l18.11-13.82,4.78-3.65,2.91-2.2A5.3,5.3,0,0,0,116.41,64.65Z"/></g></g></svg>