<svg xmlns="http://www.w3.org/2000/svg" viewBox="0 0 96.56 83.49"><defs><style>.cls-1{fill:#bababa;}</style></defs><title>icon-visitor2</title><g id="Layer_2" data-name="Layer 2"><g id="レイヤー_1" data-name="レイヤー 1"><path class="cls-1" d="M13.11,15.66l.08,0,.06-.06c2.86-3.18,8.3-8.71,12.63-10a12,12,0,0,1,3.2-.51,4.3,4.3,0,0,1,3.19,1.11c1.34,1.37,1.7,4.21,1,8.1v.32l.31.1c1.16.36,2.49.78,4,1.24l.46.14.1-.48c1.45-7.27-.44-11.06-2.28-12.95A9.26,9.26,0,0,0,29.06,0a16.31,16.31,0,0,0-4.61.72C17.65,2.74,10,11.27,6.09,16.18l-.61.75,1.36-.05C10,16.75,11.25,16.52,13.11,15.66Z"/><path class="cls-1" d="M6.11,16.2C10.05,11.29,17.67,2.76,24.46.75A16.19,16.19,0,0,1,29.06,0a9.26,9.26,0,0,1,6.79,2.62c1.83,1.89,3.71,5.66,2.27,12.93l-.1.47-.42-.16c-1.53-.46-2.86-.87-4-1.24l-.31-.09,0-.3c.7-3.86.35-6.75-1-8.12A4.29,4.29,0,0,0,29.08,5a11.63,11.63,0,0,0-3.21.52c-4.34,1.28-9.78,6.81-12.64,10l-.13.09c-1.86.86-3.09,1.09-6.26,1.22l-1.29,0Z"/><path class="cls-1" d="M92.08,11.76A11.22,11.22,0,0,0,85.75,10a19.27,19.27,0,0,0-10.23,3.26,47.49,47.49,0,0,0-8.89,7.87l-.54.61,5.29.79a3.56,3.56,0,0,1,.47.1l.25.06.17-.18a38.6,38.6,0,0,1,6-5A14,14,0,0,1,85.72,15,6.51,6.51,0,0,1,89.3,16c2.51,1.66,2.44,5.39,1.94,8.22C89.73,32.61,77.3,45.22,72,50.25l-.2.19.09.27a36.11,36.11,0,0,0,1.44,3.76l.48,1,.45-.41c7.41-6.85,20.11-19.87,21.91-30C97.68,16.79,94.25,13.17,92.08,11.76Z"/><path class="cls-1" d="M73.39,54.45a35,35,0,0,1-1.45-3.75l-.08-.27.19-.16c5.28-5,17.71-17.64,19.22-26.09.5-2.84.57-6.58-2-8.24a6.5,6.5,0,0,0-3.6-.93,14.06,14.06,0,0,0-7.44,2.41,38.7,38.7,0,0,0-6,5l-.17.18-.22-.07a3.71,3.71,0,0,0-.48-.1l-5.28-.79.56-.56a47.1,47.1,0,0,1,8.88-7.87A19.25,19.25,0,0,1,85.75,10a11.2,11.2,0,0,1,6.31,1.78c2.17,1.42,5.58,5,4.11,13.28-1.8,10.13-14.5,23.14-21.9,30l-.42.38Z"/><path class="cls-1" d="M70.77,58l-.59-1.22c-.06-.12-.55-1.16-1.12-2.76a35.81,35.81,0,0,1-2-8.33,26.31,26.31,0,0,1,1.52-12.38L70.85,28a1.57,1.57,0,0,0-.08-1.4,1.6,1.6,0,0,0-1.15-.8l-1.34-.19-4.85-.72a209.9,209.9,0,0,1-26.26-5.69c-1.5-.45-2.82-.85-4-1.22-1.94-.63-3.69-1.24-5.2-1.83l-.17-.07h0L27.54,16l-.27-.08a12.18,12.18,0,0,0-3.59-.56c-3,0-5.19,1.15-7.37,2.29-.67.35-1.36.71-2.16,1.08a13.29,13.29,0,0,1-4.49,1.34c-.78.08-1.68.14-2.73.18l-1.35.05-3,.14L1.41,24.61C1.1,25.75-.4,31.94.1,42.38c.7,14.35,7,32.15,22.67,39.08a24.27,24.27,0,0,0,9.83,2c10.72,0,20.39-6.61,24-9.46,5.21-4,12.07-10.14,12.13-10.19l1.79-1.59a2.81,2.81,0,0,0,.66-3.36ZM52.7,69c-3.13,2.44-11.35,8.11-20.1,8.11a17.54,17.54,0,0,1-7.22-1.49C15.52,71.2,10.84,61.75,8.64,54.37L40.07,55.6A1.84,1.84,0,0,0,42,53.84h0a1.82,1.82,0,0,0-1.75-1.9L7.69,50.67a52.91,52.91,0,0,1-1.17-8.6c0-.33,0-.66,0-1l2.3.07,34,1.15a1.83,1.83,0,0,0,1.89-1.76h0a1.83,1.83,0,0,0-1.77-1.9L7.38,37.4l-1,0a50.43,50.43,0,0,1,1.1-10.69,21.54,21.54,0,0,0,9.39-2.11c.91-.44,1.69-.85,2.39-1.21,1.79-.94,3-1.55,4.37-1.55a6,6,0,0,1,1.71.27c.1,0,10.29,4.24,28.19,7.68l-.28,1.17c-.08.34-.17.72-.25,1.1a57.86,57.86,0,0,0-1.26,15.14,58.7,58.7,0,0,0,3.42,16.57c.14.39.29.76.42,1.11l.11.27c.14.36.28.69.41,1l0,.06C55,67.13,53.8,68.1,52.7,69Zm9.67-8c-1.17,1-2.72,2.34-4.37,3.74,0-.11-.32-.79-.32-.79l-.21-.55c-.1-.27-.2-.54-.29-.82A57.29,57.29,0,0,1,54.05,47a54.84,54.84,0,0,1,1.24-14.56l.3-1.35s.18-.73.24-.95c2.21.41,4.45.79,6.67,1.13a33.07,33.07,0,0,0-1.79,15,44.28,44.28,0,0,0,3.08,12c.2.46.36.81.47,1Z"/><path class="cls-1" d="M32.6,83.46a24.22,24.22,0,0,1-9.82-2C7.15,74.51.83,56.72.13,42.38c-.5-10.44,1-16.63,1.31-17.76l1.18-4.17,4.31-.17c1.06,0,2-.1,2.73-.18a13.28,13.28,0,0,0,4.5-1.34c.81-.37,1.49-.73,2.17-1.09,2.16-1.12,4.39-2.28,7.35-2.28a12.06,12.06,0,0,1,3.58.56l.28.08.45.19c1.52.59,3.28,1.21,5.2,1.83,1.15.37,2.47.77,4,1.22A209.51,209.51,0,0,0,63.43,25l4.84.72,1.35.19A1.57,1.57,0,0,1,70.83,28L68.6,33.26a26.33,26.33,0,0,0-1.52,12.39A35.91,35.91,0,0,0,69,54c.6,1.67,1.1,2.72,1.12,2.76l.6,1.22.44.93a2.78,2.78,0,0,1-.65,3.33l-1.79,1.59C68.68,63.88,61.81,70,56.62,74,53,76.85,43.31,83.46,32.6,83.46Zm-24-29.08c2.16,7.25,6.82,16.81,16.75,21.22a17.67,17.67,0,0,0,7.24,1.49c8.76,0,17-5.68,20.12-8.12,1.1-.85,2.29-1.81,3.47-2.78-.16-.44-.29-.75-.42-1.09,0,0-.42-1.06-.53-1.38a58.7,58.7,0,0,1-3.42-16.56A57.69,57.69,0,0,1,53.08,32c.08-.39.17-.76.25-1.11l.28-1.16C35.74,26.29,25.5,22.08,25.4,22a6.18,6.18,0,0,0-1.72-.27c-1.41,0-2.59.61-4.37,1.55-.71.37-1.49.78-2.4,1.21a21.71,21.71,0,0,1-9.38,2.11A48,48,0,0,0,6.4,37.36l1,.07,35.51,1.19a1.83,1.83,0,0,1,1.26.57,1.76,1.76,0,0,1,.48,1.29,1.79,1.79,0,0,1-1.8,1.74l-34-1.15L6.48,41c0,.41,0,.74,0,1.07a53,53,0,0,0,1.17,8.61L40.22,52a1.8,1.8,0,0,1,1.25.57,1.83,1.83,0,0,1,.47,1.3,1.78,1.78,0,0,1-1.79,1.73L8.59,54.34Zm47-23.28-.3,1.35A55,55,0,0,0,54,47,57.76,57.76,0,0,0,57.15,62.5c.1.28.2.55.29.82l.21.55.32.79c1.7-1.39,3.25-2.72,4.42-3.73.88-.76,1.55-1.36,1.89-1.66-.1-.26-.26-.61-.46-1.07a44.19,44.19,0,0,1-3.08-12A32.88,32.88,0,0,1,62.53,31.3c-2.26-.39-4.5-.76-6.69-1.17h0Z"/></g></g></svg>