<svg xmlns="http://www.w3.org/2000/svg" viewBox="0 0 128.85 104.08"><defs><style>.cls-1{fill:#bababa;}</style></defs><title>icon-visitor3</title><g id="Layer_2" data-name="Layer 2"><g id="レイヤー_1" data-name="レイヤー 1"><path class="cls-1" d="M60.35,63.58h0C60.9,62.83,64.39,58.06,60.35,63.58Z"/><path class="cls-1" d="M60.35,63.58c7.58-10.35,13.13-23.31,10.19-36.33A36.29,36.29,0,0,0,57.65,6.88,31.36,31.36,0,0,0,50.56,2.8l-.14-.06c-.76-.32-1.54-.59-2.32-.85l-.4-.14c-.77-.25-1.56-.46-2.35-.65L44.93,1c-.86-.2-1.72-.37-2.6-.5l-.2,0A39.79,39.79,0,0,0,35.4,0a30.43,30.43,0,0,0-7.82,1.21l-.37.13c-.67.2-1.35.42-2,.67-.37.14-.73.3-1.09.45s-.84.34-1.24.54-.73.37-1.1.56S21,4,20.6,4.2s-.5.32-.76.48c-.48.3-1,.59-1.43.92l-.27.2C12.2,10,8,16.26,7.69,23.29c-.17,3.52-.49,6.5-.65,10.18A17.18,17.18,0,0,1,4.92,41.4a14.1,14.1,0,0,1-3.24,3.25c-2.56,2.48-1.59,7-1,10.07a48.12,48.12,0,0,0,4.1,12.84c2.82,5.53,8,9.59,14.47,8.56,2.42-.39,5.84-2.84,8.14-1.7h0a2.94,2.94,0,0,1,.49.32l0,0a3.44,3.44,0,0,1,.86,1.08c1.05,1.94,1.38,4.33,1.86,6.45a59.6,59.6,0,0,1,1.16,6.49l27.75-9.32c1.29-.43,1.24-.91,2.5-1.3h.05c-1.53-4-4.6-10.63-1.75-14.56C60.24,63.72,60.23,63.74,60.35,63.58ZM13.53,48.28A101.53,101.53,0,0,0,27.7,51.5C33.43,48.05,39.43,45,44.93,41.13a.23.23,0,0,1,.34.26,27.05,27.05,0,0,0-.7,3.25.23.23,0,0,1-.1.15c-5.29,3.45-10.9,6.48-16.36,9.66A28.68,28.68,0,0,0,28.36,65c.08.36.13.73.21,1.1h0v0a125.34,125.34,0,0,0,12.73-7.17q2.24-1.4,4.45-2.82c.65-.41,1.77-1.43,2.49-1.4a7.77,7.77,0,0,1,2.24.91.4.4,0,0,1,.06.7c-1.67,1.1-3.64,2.36-6,3.83a159.51,159.51,0,0,1-15.2,8.66c-1.44.7-2.92,1.3-4.37,2a31.85,31.85,0,0,1-5.29,2.39,9.77,9.77,0,0,1-7.89-1.3C7.89,69.23,6.15,64.11,4.9,60.15a50.06,50.06,0,0,1-1.82-7.93c-.4-2.81-.74-6.53,3.16-6.19A19.31,19.31,0,0,1,11,47.45c.57.21,1.16.38,1.74.57Z"/><path class="cls-1" d="M117.85,78.87h0C118.41,78.12,121.9,73.35,117.85,78.87Z"/><path class="cls-1" d="M117.85,78.87c7.59-10.35,13.14-23.31,10.2-36.33a36.34,36.34,0,0,0-12.89-20.37,31.58,31.58,0,0,0-7.09-4.08l-.14-.06c-.76-.32-1.54-.59-2.32-.85l-.4-.14c-.78-.25-1.56-.46-2.36-.65l-.41-.1c-.86-.2-1.72-.37-2.6-.5l-.2,0a39.79,39.79,0,0,0-6.73-.45,30.36,30.36,0,0,0-7.82,1.21l-.37.12c-.68.21-1.35.43-2,.67-.37.14-.72.31-1.08.46s-.84.34-1.25.54-.72.37-1.09.56-.8.41-1.18.63-.5.32-.76.48c-.48.29-1,.59-1.43.92l-.27.2c-5.94,4.24-10.1,10.46-10.45,17.49-.17,3.52-.5,6.5-.65,10.18a17.31,17.31,0,0,1-2.12,7.93,14.1,14.1,0,0,1-3.24,3.25c-2.56,2.48-1.59,7-1,10.07a47.76,47.76,0,0,0,4.1,12.84c2.82,5.53,8,9.59,14.47,8.56,2.41-.39,5.84-2.84,8.14-1.7h0a2.65,2.65,0,0,1,.5.32l0,0a3.44,3.44,0,0,1,.86,1.08c1,1.94,1.38,4.33,1.86,6.45a59.6,59.6,0,0,1,1.16,6.49l27.75-9.32c1.29-.43,1.24-.91,2.5-1.3h0c-1.53-4-4.6-10.63-1.75-14.56C117.75,79,117.74,79,117.85,78.87ZM71,63.57a99.79,99.79,0,0,0,14.17,3.21c5.73-3.44,11.72-6.54,17.22-10.36a.23.23,0,0,1,.35.25,25.73,25.73,0,0,0-.7,3.26.23.23,0,0,1-.1.15c-5.29,3.45-10.9,6.48-16.36,9.66a28.68,28.68,0,0,0,.25,10.53c.08.36.12.73.21,1.1h0v0a124.42,124.42,0,0,0,12.74-7.17c1.48-.93,3-1.87,4.45-2.82.64-.41,1.77-1.43,2.49-1.4a7.88,7.88,0,0,1,2.24.91.4.4,0,0,1,.06.7c-1.67,1.1-3.64,2.36-6,3.83A158.44,158.44,0,0,1,86.88,84.1c-1.44.7-2.91,1.3-4.37,2a32.12,32.12,0,0,1-5.28,2.39,9.77,9.77,0,0,1-7.89-1.3c-3.94-2.65-5.68-7.77-6.94-11.73a49,49,0,0,1-1.81-7.93c-.4-2.81-.74-6.53,3.16-6.19a19.44,19.44,0,0,1,4.74,1.42c.57.21,1.16.38,1.74.57Z"/></g></g></svg>