<svg xmlns="http://www.w3.org/2000/svg" viewBox="0 0 93.49 93.49"><defs><style>.cls-1{fill:#bababa;}</style></defs><title>icon-visitor5_1</title><g id="Layer_2" data-name="Layer 2"><g id="レイヤー_1" data-name="レイヤー 1"><rect class="cls-1" x="57.1" y="20.66" width="24.29" height="7.17" rx="2.26" transform="translate(3.14 56.07) rotate(-45)"/><path class="cls-1" d="M90.91,2.58C87.28-1,81.07-.81,76.9,3L29.64,50.28a1.43,1.43,0,0,0-.33.47L26.23,60.93,1.31,85.84a4.48,4.48,0,0,0,6.34,6.34L32.56,67.26l10.18-3.07a1.62,1.62,0,0,0,.47-.34L90.45,16.6C94.3,12.42,94.54,6.21,90.91,2.58Zm-2,2c2.23,2.22,2.33,5.87.47,8.81A9.75,9.75,0,0,1,88.12,15L41.36,61.72l-10.45,3.2L15.3,80.54,13,78.19,28.57,62.58l3.2-10.44L78.53,5.37A9.68,9.68,0,0,1,80.1,4.12C83,2.25,86.69,2.35,88.91,4.58Z"/></g></g></svg>