<svg xmlns="http://www.w3.org/2000/svg" viewBox="0 0 113.8 86.76"><defs><style>.cls-1{fill:#bababa;}</style></defs><title>icon-visitor7</title><g id="Layer_2" data-name="Layer 2"><g id="レイヤー_1" data-name="レイヤー 1"><path class="cls-1" d="M72.85,11.23a2,2,0,0,1-1-.29,2,2,0,0,1-.72-2.81L73.84,3.5a2,2,0,0,1,1.76-1h16A2.71,2.71,0,0,1,94.29,0h10.3a2.72,2.72,0,0,1,2.71,2.71v6.5h-4.71v6.87h2a2.72,2.72,0,0,1,2.71,2.71v6.5H91.58v-6.5a2.72,2.72,0,0,1,2.71-2.71h2V9.21H91.58V6.61H76.77l-2.16,3.63A2,2,0,0,1,72.85,11.23Z"/><path class="cls-1" d="M86.3,35.21a4.7,4.7,0,0,0-.81,2.65V75.13A5.53,5.53,0,0,0,91,80.66h17.24a5.53,5.53,0,0,0,5.54-5.53V37.86a4.78,4.78,0,0,0-.81-2.65l-4.51-6.7H90.81Zm5.39,13.56h15.9v9.66H91.69Z"/><path class="cls-1" d="M71.64,14.44a1.17,1.17,0,0,1,.15.27,1.71,1.71,0,0,1,.09.3,1.62,1.62,0,0,1,0,.62,1.71,1.71,0,0,1-.09.3,1.17,1.17,0,0,1-.15.27,1.57,1.57,0,0,1-.2.25,1.59,1.59,0,0,1-.24.2l-.27.14a1.71,1.71,0,0,1-.3.09,1.63,1.63,0,0,1-.31,0,1.55,1.55,0,0,1-.31,0,1.32,1.32,0,0,1-.3-.09,2.44,2.44,0,0,1-.28-.14,2.31,2.31,0,0,1-.24-.2,2.43,2.43,0,0,1-.2-.25,1.65,1.65,0,0,1-.23-.57,1.22,1.22,0,0,1,0-.62,1.65,1.65,0,0,1,.23-.57,2.43,2.43,0,0,1,.2-.25,1.64,1.64,0,0,1,1.13-.46,1.6,1.6,0,0,1,1.12.46A1.57,1.57,0,0,1,71.64,14.44Z"/><path class="cls-1" d="M67.45,19.74a1.59,1.59,0,0,1-.87,2.93,1.59,1.59,0,1,1,.87-2.93Z"/><path class="cls-1" d="M62,28.18a1.59,1.59,0,1,1,2.2-.47,1.57,1.57,0,0,1-1.34.72A1.61,1.61,0,0,1,62,28.18Z"/><path class="cls-1" d="M60.58,33.21a1.51,1.51,0,0,1-.15.28l-.19.24a2.43,2.43,0,0,1-.25.2l-.27.14a1.71,1.71,0,0,1-.3.09,1.62,1.62,0,0,1-.62,0l-.3-.09a1.71,1.71,0,0,1-.27-.14,2.43,2.43,0,0,1-.25-.2l-.2-.24a2.44,2.44,0,0,1-.14-.28,1.71,1.71,0,0,1-.09-.3,1.55,1.55,0,0,1,0-.31,1.63,1.63,0,0,1,0-.31,1.71,1.71,0,0,1,.09-.3,2.29,2.29,0,0,1,.14-.27,2.43,2.43,0,0,1,.2-.25,1.5,1.5,0,0,1,.25-.19,1.17,1.17,0,0,1,.27-.15l.3-.09a1.62,1.62,0,0,1,.62,0,1.71,1.71,0,0,1,.3.09,1.43,1.43,0,0,1,.27.15,1.5,1.5,0,0,1,.25.19,2.35,2.35,0,0,1,.19.25,1.43,1.43,0,0,1,.15.27,1.71,1.71,0,0,1,.09.3,1.63,1.63,0,0,1,0,.31,1.55,1.55,0,0,1,0,.31A1.71,1.71,0,0,1,60.58,33.21Z"/><path class="cls-1" d="M64,16.29a1.55,1.55,0,0,1-.31,0,1.32,1.32,0,0,1-.3-.09,1.51,1.51,0,0,1-.28-.15,2.31,2.31,0,0,1-.24-.2,1.59,1.59,0,0,1-.2-.24,1.47,1.47,0,0,1-.14-.28,2.47,2.47,0,0,1-.1-.29,1.73,1.73,0,0,1,0-.32,1.71,1.71,0,0,1,0-.31,2.47,2.47,0,0,1,.1-.29,1.47,1.47,0,0,1,.14-.28,1.59,1.59,0,0,1,.2-.24,2.31,2.31,0,0,1,.24-.2,1.51,1.51,0,0,1,.28-.15,1.32,1.32,0,0,1,.3-.09,1.62,1.62,0,0,1,.62,0,1.71,1.71,0,0,1,.3.09,1.43,1.43,0,0,1,.27.15,1.59,1.59,0,0,1,.24.2,1.16,1.16,0,0,1,.2.24,1.51,1.51,0,0,1,.15.28,1.4,1.4,0,0,1,.09.29,1.71,1.71,0,0,1,0,.31,1.73,1.73,0,0,1,0,.32,1.4,1.4,0,0,1-.09.29,1.51,1.51,0,0,1-.15.28,1.16,1.16,0,0,1-.2.24,1.59,1.59,0,0,1-.24.2,1.43,1.43,0,0,1-.27.15,1.71,1.71,0,0,1-.3.09A1.63,1.63,0,0,1,64,16.29Z"/><path class="cls-1" d="M58.33,20.74a1.58,1.58,0,0,1-.92.3,1.61,1.61,0,0,1-1.3-.67,1.59,1.59,0,1,1,2.22.37Z"/><path class="cls-1" d="M52.25,24.8a2.44,2.44,0,0,1-.14.28l-.2.24a1.6,1.6,0,0,1-1.13.46,1.63,1.63,0,0,1-.31,0,1.71,1.71,0,0,1-.3-.09l-.27-.14a1.59,1.59,0,0,1-.24-.2,2.12,2.12,0,0,1-.2-.24,1.51,1.51,0,0,1-.15-.28,1.32,1.32,0,0,1-.09-.3,1.55,1.55,0,0,1,0-.31,1.63,1.63,0,0,1,0-.31,1.71,1.71,0,0,1,.09-.3,1.43,1.43,0,0,1,.15-.27,1.16,1.16,0,0,1,.2-.24.91.91,0,0,1,.24-.2,1.43,1.43,0,0,1,.27-.15,1.71,1.71,0,0,1,.3-.09,1.62,1.62,0,0,1,.62,0,1.32,1.32,0,0,1,.3.09,1.51,1.51,0,0,1,.28.15,1.11,1.11,0,0,1,.24.2,1.59,1.59,0,0,1,.2.24,2.29,2.29,0,0,1,.14.27,1.71,1.71,0,0,1,.09.3,1.63,1.63,0,0,1,0,.31,1.55,1.55,0,0,1,0,.31A1.32,1.32,0,0,1,52.25,24.8Z"/><path class="cls-1" d="M73.26,22a1.32,1.32,0,0,1-.3-.09l-.28-.14a1.73,1.73,0,0,1-.44-.44A2.44,2.44,0,0,1,72.1,21a1.32,1.32,0,0,1-.09-.3,1.06,1.06,0,0,1,0-.31,1.15,1.15,0,0,1,0-.31,1.71,1.71,0,0,1,.09-.3c0-.09.09-.18.14-.27a1.59,1.59,0,0,1,.2-.24,1.16,1.16,0,0,1,.24-.2A1.51,1.51,0,0,1,73,19a1.32,1.32,0,0,1,.3-.09,1.62,1.62,0,0,1,.62,0,1.71,1.71,0,0,1,.3.09l.27.15a1.73,1.73,0,0,1,.44.44,1.82,1.82,0,0,1,.15.27,1.6,1.6,0,0,1,.12.61,1.55,1.55,0,0,1,0,.31A1.32,1.32,0,0,1,75,21a1.51,1.51,0,0,1-.15.28,1.16,1.16,0,0,1-.2.24,1.59,1.59,0,0,1-.24.2l-.27.14a1.71,1.71,0,0,1-.3.09,1.15,1.15,0,0,1-.31,0A1.06,1.06,0,0,1,73.26,22Z"/><path class="cls-1" d="M71.53,27.42a1.56,1.56,0,1,1,.45.07A1.41,1.41,0,0,1,71.53,27.42Z"/><path class="cls-1" d="M69.94,32.89a1.6,1.6,0,1,1,.45.06A1.74,1.74,0,0,1,69.94,32.89Z"/><path class="cls-1" d="M67.32,36.21a1.51,1.51,0,0,1,.15-.28,1.16,1.16,0,0,1,.2-.24,1.59,1.59,0,0,1,.24-.2l.27-.14.3-.1a1.67,1.67,0,0,1,.63,0l.29.1.28.14a1.73,1.73,0,0,1,.44.44,2.49,2.49,0,0,1,.15.28,2.13,2.13,0,0,1,.09.3,1.55,1.55,0,0,1,0,.31,1.71,1.71,0,0,1,0,.31c0,.1-.06.2-.09.3s-.09.18-.15.27a1.59,1.59,0,0,1-.2.24,1.16,1.16,0,0,1-.24.2,1.51,1.51,0,0,1-.28.15,1.4,1.4,0,0,1-.29.09,1.73,1.73,0,0,1-.32,0,1.63,1.63,0,0,1-.31,0l-.3-.09a1.82,1.82,0,0,1-.27-.15,1.73,1.73,0,0,1-.44-.44,1.82,1.82,0,0,1-.15-.27,1.6,1.6,0,0,1-.12-.61,1.55,1.55,0,0,1,0-.31A1.32,1.32,0,0,1,67.32,36.21Z"/><path class="cls-1" d="M5.56,45.23,21.77,27.47a5.21,5.21,0,0,1,3.95-1.85,4.59,4.59,0,0,1,3,1.08,4.66,4.66,0,0,1,1.65,3.41,5.24,5.24,0,0,1-1.19,3.54l-2.73,3.84,16.32-5.8a5.51,5.51,0,0,1,1.83-.32,4.87,4.87,0,0,1,4.62,3.11,4.58,4.58,0,0,1,.27,1.8h.28a5.1,5.1,0,0,1,2,.39,4.64,4.64,0,0,1,2.37,6.5,5.3,5.3,0,0,1-1.41,1.68,8.5,8.5,0,0,0-2.81.51l-8.33,3a8.54,8.54,0,0,0,.11-1.75c0-.3,0-.59-.09-.89l8.53-3.1a1.91,1.91,0,0,0,1.08-.93,1.39,1.39,0,0,0,.1-1.14,1.43,1.43,0,0,0-.81-.81,1.92,1.92,0,0,0-.72-.14,2.16,2.16,0,0,0-.7.13l-8.53,3.1a7.85,7.85,0,0,0-1.63-1.88,7.23,7.23,0,0,0-1-.68l7-2.55a1.7,1.7,0,0,0,1.18-2.07,1.55,1.55,0,0,0-1.52-1,2.34,2.34,0,0,0-.73.13L22.67,42.32a1.72,1.72,0,0,1-.55.1,1.68,1.68,0,0,1-1.31-.65,1.62,1.62,0,0,1,0-1.94l5.77-8.13.08-.1a2,2,0,0,0,.47-1.35,1.4,1.4,0,0,0-.48-1,1.38,1.38,0,0,0-.9-.32,2,2,0,0,0-1.46.71l0,.05L7.71,47.75a1.76,1.76,0,0,1-.65.43l-6,2.18L0,47.26Z"/><path class="cls-1" d="M30,44.07a5.18,5.18,0,0,1,3.95-1.85,4.62,4.62,0,0,1,4.65,4.48,5.2,5.2,0,0,1-1.19,3.55l-2.72,3.84L51,48.29A5.42,5.42,0,0,1,52.8,48a4.87,4.87,0,0,1,4.61,3.11,4.56,4.56,0,0,1,.27,1.8H58a5.18,5.18,0,0,1,2,.39,4.64,4.64,0,0,1,2.36,6.49,5.27,5.27,0,0,1-1.49,1.76,4.55,4.55,0,0,1,1,1.56,4.61,4.61,0,0,1-.25,3.72,5.19,5.19,0,0,1-2.89,2.55l-.7.25A4.55,4.55,0,0,1,58.71,71a4.64,4.64,0,0,1-.27,3.78,5.28,5.28,0,0,1-2.87,2.5L36.48,84.18a1.51,1.51,0,0,1-.47.09L21.11,85l-4.77,1.74-1.06-3.11,4.94-1.8a1.51,1.51,0,0,1,.48-.09L35.59,81l18.86-6.86a2,2,0,0,0,1.08-.93,1.43,1.43,0,0,0,.1-1.14,1.42,1.42,0,0,0-.81-.8,1.79,1.79,0,0,0-.72-.15,2.17,2.17,0,0,0-.71.13l-13.77,5a1.54,1.54,0,0,1-.56.1,1.64,1.64,0,0,1-1.5-1,.42.42,0,0,1,0-.1v0h0a1.64,1.64,0,0,1,1-2.11l19-6.91a1.7,1.7,0,0,0,1.19-2.07,1.4,1.4,0,0,0-.81-.81,2,2,0,0,0-.72-.14,2.16,2.16,0,0,0-.71.12l-16,5.82a1.78,1.78,0,0,1-.56.1l-.2,0a1.63,1.63,0,0,1-1.35-1.07v0a1.63,1.63,0,0,1,1-2.1l19-6.9a1.94,1.94,0,0,0,1.09-.93,1.35,1.35,0,0,0-.71-2,2,2,0,0,0-.72-.14,1.94,1.94,0,0,0-.71.13l-19,6.9a1.78,1.78,0,0,1-.56.1,1.65,1.65,0,0,1-1.54-1.07v0a1.3,1.3,0,0,1-.08-.34,1.63,1.63,0,0,1,1.06-1.76l16-5.81a1.71,1.71,0,0,0,1.19-2.07,1.56,1.56,0,0,0-1.53-1,2,2,0,0,0-.72.13L30.85,58.92a1.71,1.71,0,0,1-.55.09A1.64,1.64,0,0,1,29,56.42l5.77-8.12.08-.1a1.91,1.91,0,0,0,.47-1.35,1.4,1.4,0,0,0-.48-1,1.38,1.38,0,0,0-.9-.31,2,2,0,0,0-1.46.71l0,0L15.89,64.34a1.6,1.6,0,0,1-.65.44L9.21,67,8.15,63.86l5.59-2Z"/></g></g></svg>