<svg xmlns="http://www.w3.org/2000/svg" viewBox="0 0 227.07 86.44"><defs><style>.cls-1{fill:#040000;}</style></defs><title>logo</title><g id="Layer_2" data-name="Layer 2"><g id="レイヤー_1" data-name="レイヤー 1"><path class="cls-1" d="M86.56,0A31.87,31.87,0,0,1,99.49,2.63a34,34,0,0,1,17.69,17.69,32.32,32.32,0,0,1,2.63,12.93,31.86,31.86,0,0,1-2.63,12.92A33.93,33.93,0,0,1,99.49,63.86a29.47,29.47,0,0,1-12.93,2.63,31.86,31.86,0,0,1-12.92-2.63A33.84,33.84,0,0,1,56,46.17a32.31,32.31,0,0,1-2.63-12.92A31.87,31.87,0,0,1,56,20.32,33.93,33.93,0,0,1,73.64,2.63,31.86,31.86,0,0,1,86.56,0Zm.13,53.57a19,19,0,0,0,7.9-1.63,19.43,19.43,0,0,0,6.53-4.39,20.64,20.64,0,0,0,6-14.43,19,19,0,0,0-1.63-7.9,19.43,19.43,0,0,0-4.39-6.53,20.64,20.64,0,0,0-14.43-6,19,19,0,0,0-7.9,1.63,19.43,19.43,0,0,0-6.53,4.39,21.37,21.37,0,0,0-4.39,6.53,19,19,0,0,0-1.63,7.9A19,19,0,0,0,67.87,41,20.46,20.46,0,0,0,78.79,51.94,19,19,0,0,0,86.69,53.57Z"/><path class="cls-1" d="M47.55,48.3a19.46,19.46,0,0,0,4.89-7.9,19.85,19.85,0,0,0,.88-8.91l12.79-1.63a34.42,34.42,0,0,1-1.38,14.68,32.35,32.35,0,0,1-8,13,32.57,32.57,0,0,1-10.92,7.28A33.41,33.41,0,0,1,20.7,65a32.08,32.08,0,0,1-11-7.28A32.62,32.62,0,0,1,2.38,46.79,35.5,35.5,0,0,1,0,34,33.45,33.45,0,0,1,2.51,21.45,32.53,32.53,0,0,1,9.79,10.54a31.79,31.79,0,0,1,12.92-8A32.29,32.29,0,0,1,37.39,1.13l-1.64,12.8a19.49,19.49,0,0,0-8.9.87,22,22,0,0,0-7.91,4.9,21.57,21.57,0,0,0-4.51,6.65,20.13,20.13,0,0,0,0,15.3,21.15,21.15,0,0,0,4.39,6.65,19.13,19.13,0,0,0,6.65,4.39,20.13,20.13,0,0,0,15.3,0A19.63,19.63,0,0,0,47.55,48.3Z"/><path class="cls-1" d="M193.83,0a31.82,31.82,0,0,1,12.92,2.63,33.93,33.93,0,0,1,17.69,17.69,32.15,32.15,0,0,1,2.63,12.93,31.69,31.69,0,0,1-2.63,12.92,33.84,33.84,0,0,1-17.69,17.69,32.27,32.27,0,0,1-12.92,2.63,31.82,31.82,0,0,1-12.92-2.63,33.84,33.84,0,0,1-17.69-17.69,32.15,32.15,0,0,1-2.64-12.92,31.71,31.71,0,0,1,2.64-12.93A33.93,33.93,0,0,1,180.91,2.63,32.24,32.24,0,0,1,193.83,0ZM194,53.57a19,19,0,0,0,7.91-1.63,19.38,19.38,0,0,0,6.52-4.39A21.37,21.37,0,0,0,212.77,41a21.06,21.06,0,0,0,1.63-7.9,19,19,0,0,0-1.63-7.9,19.28,19.28,0,0,0-4.39-6.53,20.59,20.59,0,0,0-14.43-6,19,19,0,0,0-7.9,1.63,19.38,19.38,0,0,0-6.52,4.39,21,21,0,0,0-4.39,6.53,19,19,0,0,0-1.64,7.9,19,19,0,0,0,1.64,7.9,21,21,0,0,0,4.39,6.53,21.32,21.32,0,0,0,6.52,4.39A19,19,0,0,0,194,53.57Z"/><path class="cls-1" d="M154.81,48.3a20.85,20.85,0,0,0,4.89-7.9,19.57,19.57,0,0,0,.88-8.91l12.8-1.63A34.58,34.58,0,0,1,172,44.54a33.29,33.29,0,0,1-18.94,20.32A33.43,33.43,0,0,1,128,65a32.17,32.17,0,0,1-11-7.28,32.59,32.59,0,0,1-7.27-10.92,33.34,33.34,0,0,1,.12-25.09,32.68,32.68,0,0,1,7.28-10.91,32,32,0,0,1,12.92-8,32.63,32.63,0,0,1,14.68-1.38L143,13.93a19.55,19.55,0,0,0-8.91.87,22,22,0,0,0-7.9,4.9,21.43,21.43,0,0,0-4.52,6.65,20.26,20.26,0,0,0,0,15.3,21.32,21.32,0,0,0,4.39,6.65,19.13,19.13,0,0,0,6.65,4.39,20.16,20.16,0,0,0,15.31,0A18.54,18.54,0,0,0,154.81,48.3Z"/><path class="cls-1" d="M65.24,86.31l-2-11.41V86.31h-2V71.89H64l2,11,2-11h2.88V86.31h-2V74.9l-2,11.41Z"/><path class="cls-1" d="M82.17,76.53a4.89,4.89,0,0,0-.12-1.38c-.13-.38-.13-.76-.38-1a1.4,1.4,0,0,0-.63-.62,2.12,2.12,0,0,0-2,0,1.45,1.45,0,0,0-.63.62,8.43,8.43,0,0,0-.38,1,4.89,4.89,0,0,0-.12,1.38v4.64A8.66,8.66,0,0,0,78,83.05a2.43,2.43,0,0,0,.5,1.13,2.26,2.26,0,0,0,.63.5,1.55,1.55,0,0,0,.76.13,1.53,1.53,0,0,0,.75-.13,1.26,1.26,0,0,0,.63-.5,2.43,2.43,0,0,0,.5-1.13,8.66,8.66,0,0,0,.12-1.88v-.5h-2V79h4.14v7.27H82.55l-.5-1.5c-.13.12-.13.37-.25.5a1.66,1.66,0,0,1-.38.5,2.67,2.67,0,0,1-.63.38,1.64,1.64,0,0,1-.75.12,4.39,4.39,0,0,1-1.25-.12,8.43,8.43,0,0,1-1-.38,1.77,1.77,0,0,1-.75-.63,4.44,4.44,0,0,1-.63-1.12A13.37,13.37,0,0,1,76,82.55a9.8,9.8,0,0,1-.13-2V76.9a11.52,11.52,0,0,1,.25-2.13,3.38,3.38,0,0,1,.75-1.63A3.63,3.63,0,0,1,78.16,72a4.41,4.41,0,0,1,2-.38,4,4,0,0,1,1.75.38,3.19,3.19,0,0,1,1.26.88,3,3,0,0,1,.75,1.5,9.52,9.52,0,0,1,.25,2h-2Z"/><path class="cls-1" d="M93.46,86.31l-2-11.41V86.31h-2V71.89h2.89l2,11,2-11h2.76V86.31h-2V74.9l-2,11.41Z"/><path class="cls-1" d="M110.65,86.31V71.89h3.14a9.52,9.52,0,0,1,2,.25,2.08,2.08,0,0,1,1.25.75,4.12,4.12,0,0,1,.75,1.25,4.5,4.5,0,0,1,.13,1.89v5.64a9.08,9.08,0,0,1-.25,2,3.4,3.4,0,0,1-.76,1.5,4.33,4.33,0,0,1-1.25.88,4.62,4.62,0,0,1-2,.25Zm3.14-1.5a3.8,3.8,0,0,0,1.25-.25,1.59,1.59,0,0,0,.63-.63,2.45,2.45,0,0,0,.25-1.13V75.15a2.31,2.31,0,0,0-.25-1,1.51,1.51,0,0,0-.63-.62,3.05,3.05,0,0,0-1.25-.25h-1V84.56h1Z"/><path class="cls-1" d="M127.59,79.54H125v5.14h3.64v1.51H123V71.89h5.64v1.5H125V78h2.64Z"/><path class="cls-1" d="M137.37,86.44a4.56,4.56,0,0,1-1.38-.13,2.48,2.48,0,0,1-1-.5c-.25-.25-.5-.37-.75-.63a2.52,2.52,0,0,1-.5-.75,7.31,7.31,0,0,1-.38-1,3.36,3.36,0,0,1-.13-1.13l2-.5a2.68,2.68,0,0,0,.13,1,1.41,1.41,0,0,0,.37,1c.25.26.38.51.63.76a1.35,1.35,0,0,0,1,.25,1.33,1.33,0,0,0,1.51-1.51,1.53,1.53,0,0,0-.13-.75c-.12-.25-.12-.38-.25-.63a2.1,2.1,0,0,0-.5-.62l-.63-.63-2.63-2-.75-.75a2.07,2.07,0,0,1-.51-.88,3.45,3.45,0,0,1-.25-.88c0-.25-.12-.63-.12-.88a4.11,4.11,0,0,1,.88-2.51,1.84,1.84,0,0,1,1.13-.75,6.53,6.53,0,0,1,1.5-.25,4.56,4.56,0,0,1,1.38.13,8.35,8.35,0,0,1,1,.37,3.3,3.3,0,0,1,.76.63c.25.25.37.5.5.63s.25.62.38.87a2.6,2.6,0,0,1,.12,1l-2,.5a2.58,2.58,0,0,0-.12-.88,1.37,1.37,0,0,0-.38-.88,1.4,1.4,0,0,0-.63-.62,2.27,2.27,0,0,0-1-.25,1.43,1.43,0,0,0-1.25.5.63.63,0,0,0-.25.5c0,.25-.13.38-.13.63a3.9,3.9,0,0,0,.25,1.13,2.81,2.81,0,0,0,.75,1l2.64,2a3,3,0,0,1,.88.88,4,4,0,0,1,.62,1,8.21,8.21,0,0,0,.38,1,3.39,3.39,0,0,1,.13,1.13,3.66,3.66,0,0,1-.26,1.26,5.08,5.08,0,0,1-.62,1.13,4.4,4.4,0,0,1-1.13.75A2.41,2.41,0,0,1,137.37,86.44Z"/><path class="cls-1" d="M146,71.89h2V86.31h-2Z"/><path class="cls-1" d="M159.45,76.53a4.89,4.89,0,0,0-.12-1.38c-.13-.38-.13-.76-.38-1a1.4,1.4,0,0,0-.63-.62,2.12,2.12,0,0,0-2,0,1.51,1.51,0,0,0-.63.62,8.43,8.43,0,0,0-.38,1,4.89,4.89,0,0,0-.12,1.38v4.64a8.66,8.66,0,0,0,.12,1.88,2.33,2.33,0,0,0,.51,1.13,2.1,2.1,0,0,0,.62.5,1.55,1.55,0,0,0,.76.13,1.53,1.53,0,0,0,.75-.13,1.26,1.26,0,0,0,.63-.5,2.43,2.43,0,0,0,.5-1.13,8.66,8.66,0,0,0,.12-1.88v-.5h-2V79h4.14v7.27h-1.51l-.5-1.5c-.13.12-.13.37-.25.5a1.66,1.66,0,0,1-.38.5,2.67,2.67,0,0,1-.63.38,1.64,1.64,0,0,1-.75.12,4.39,4.39,0,0,1-1.25-.12,8.43,8.43,0,0,1-1-.38,1.77,1.77,0,0,1-.75-.63,4.44,4.44,0,0,1-.63-1.12,13.37,13.37,0,0,1-.37-1.51,9.8,9.8,0,0,1-.13-2V76.9a11.52,11.52,0,0,1,.25-2.13,3.38,3.38,0,0,1,.75-1.63A3.63,3.63,0,0,1,155.44,72a4.41,4.41,0,0,1,2-.38,4,4,0,0,1,1.75.38,3.19,3.19,0,0,1,1.26.88,3,3,0,0,1,.75,1.5,9.52,9.52,0,0,1,.25,2h-2Z"/><path class="cls-1" d="M172.38,86.31l-3.64-9.66v9.66h-2V71.89h1.51l3.63,8.9v-8.9h2V86.31Z"/></g></g></svg>