<svg xmlns="http://www.w3.org/2000/svg" viewBox="0 0 325.85 18.31"><defs><style>.cls-1{fill:#231815;}</style></defs><title>textbanner</title><g id="Layer_2" data-name="Layer 2"><g id="レイヤー_1" data-name="レイヤー 1"><path class="cls-1" d="M0,13.47V.06H6.42v.8H.82V13.47Z"/><path class="cls-1" d="M11.11,8.18a5.38,5.38,0,0,0-1.42,3.27c0,1.61,1.31,2.94,4.63,2.94A11.31,11.31,0,0,0,19,13.74c1.42.26,2,.76,2,1.4,0,1.05-2.58,1.13-6.39,1.13-4.24,0-5.93-1.94-5.93-4A5.7,5.7,0,0,1,10.9,8Zm4.51-3.65a23.61,23.61,0,0,1-4,.56,2.31,2.31,0,0,1-2.28-1.9,1.4,1.4,0,0,1,.06-.43l.12,0c.29.43,1,.7,2.25.7a23.67,23.67,0,0,0,5.39-1c1.34.1,2.25.74,2.25,1.65,0,.45-.62.7-1.18.74a15.86,15.86,0,0,0-5.39,1.89l-.19-.26c.62-.48,2.27-1.4,2.93-1.88Z"/><path class="cls-1" d="M26.46,11.16a6.24,6.24,0,0,1,4.46-2.43,2.58,2.58,0,0,1,2.56,2.89c0,.65-.06,1.54-.06,2.05,0,1.16.72,1.57,1.85,1.57,2.12,0,3.6-1.57,4.69-4.43l.31.08c-.76,3.94-2.55,6.26-5.48,6.26-2.18,0-3.33-1.15-3.33-3,0-.6.08-1.73.08-2.23,0-1.79-.23-2.42-1.38-2.42-1.32,0-3,1.6-3.89,3.48a14,14,0,0,0-.95,2.92c-.18.86-.6,1.17-1.15,1.17A1.1,1.1,0,0,1,23,16a4.46,4.46,0,0,1,.45-1.79c.49-1,1.17-2.59,2-4.43,1.15-2.41,2.8-5.6,3-6.59a1.45,1.45,0,0,0,.06-.41c0-1-1.34-.82-1.36-.82l-.06-.05a1.67,1.67,0,0,1,1.42-.82c1.23,0,2.57.62,2.57,1.65,0,.58-.62.93-1.09,1.58a41,41,0,0,0-3.73,6.82Z"/><path class="cls-1" d="M44.87,1.63A1.48,1.48,0,0,1,46.36.7c1.11,0,2.26.49,2.26,1s-.33.6-.51,1.34c0,.31-.25.82-.35,1.19a8.53,8.53,0,0,0,2-.8,1.46,1.46,0,0,0,.68-.87c1.82,0,2.47.37,2.47.89s-.51.78-1.71,1.23a31.15,31.15,0,0,1-3.83,1.06,42.86,42.86,0,0,1-3.6,7.88,1.21,1.21,0,0,1-.8.56c-.31,0-1-.15-1-1.16a1.49,1.49,0,0,1,.43-1.15A14,14,0,0,0,45.72,6a8.42,8.42,0,0,1-1.2.09c-1.13,0-1.77-.25-2.16-.87a2,2,0,0,1-.29-1l.21-.18A1.8,1.8,0,0,0,44,4.82a13.83,13.83,0,0,0,2-.19,12.37,12.37,0,0,0,.29-2.16c0-.64-.17-.8-.87-.8a1.29,1.29,0,0,0-.52.1ZM50.54,7a7.49,7.49,0,0,1,4.32-1.46C56,5.58,58,5.89,58,7.23c0,.16,0,.62-.74.62a2.09,2.09,0,0,1-.35,0,8.6,8.6,0,0,0-1.63-.29,1.1,1.1,0,0,0-.27,0C53.21,7.89,53,8.83,53,10a8.89,8.89,0,0,0,.27,2.2c0,.15.08.37.1.48a10.77,10.77,0,0,1,3.05,1.46,2.05,2.05,0,0,1,1,1.67.9.9,0,0,1-1,.8c-.42,0-1.2-1.24-2.89-2.12a1.47,1.47,0,0,1,0,.31c0,1.75-.78,2.67-3.54,2.67-2.14,0-3.68-1.05-3.68-2.71s1.91-2.54,3.76-2.54a10.86,10.86,0,0,1,1.53.15c-.06-.56-.13-1.44-.15-2,0-1.79,1.1-2.78,3.28-3.32l0-.06a4.85,4.85,0,0,0-1.32-.16,7.22,7.22,0,0,0-2.78.55Zm1.19,6.68a5.38,5.38,0,0,0-2.06-.42c-1.28,0-2.26.52-2.26,1.3s.88,1.34,2.47,1.34c1.4,0,1.89-.54,1.89-1.3C51.77,14.31,51.75,13.9,51.73,13.72Z"/><path class="cls-1" d="M70.54,6.2a12.19,12.19,0,0,0,1.69,4.08A20.09,20.09,0,0,0,75,7.15l2.14,1.44a.44.44,0,0,1-.43.22,2.19,2.19,0,0,1-.31,0,23.8,23.8,0,0,1-3.89,2,12.31,12.31,0,0,0,5.52,4.1l0,.22a2.45,2.45,0,0,0-2,1.69c-3.24-2.08-5.11-5.12-5.85-10.54h-.12A12.94,12.94,0,0,1,67.49,8a7.83,7.83,0,0,1,3.42,6.42,4.58,4.58,0,0,1-1,3.09,3.31,3.31,0,0,1-2.57.83c0-1.42-.66-1.67-2.06-1.88v-.26l2.39,0a.83.83,0,0,0,.61-.17,4.2,4.2,0,0,0,.62-2.49,25.9,25.9,0,0,1-9,3l-.08-.31a19.57,19.57,0,0,0,8.73-4.93,5.77,5.77,0,0,0-.24-.74,29.28,29.28,0,0,1-8,2.72L60.28,13a21.76,21.76,0,0,0,7.21-4.2c-.14-.2-.29-.39-.45-.59a26.6,26.6,0,0,1-6.39,2.05l-.12-.32A20.74,20.74,0,0,0,67.12,6.2h-4.3l-.09-.39h9.19L73,4.39l1.63,1.15c.18-.6.43-1.63.59-2.39H63c.08,1.61-.78,2.7-1.93,2.7-.62,0-1.1-.31-1.1-.91a1.35,1.35,0,0,1,.79-1.09,2.6,2.6,0,0,0,1.66-2.2h.29a5.47,5.47,0,0,1,.25,1.11h5V0l3,.27c0,.27-.21.43-.82.51v2h5l1.09-1.09,1.9,1.83c-.13.15-.35.19-.74.21a12.73,12.73,0,0,1-2.48,2l.25.17c-.16.25-.41.35-.93.35Z"/><path class="cls-1" d="M85,9.29a24.9,24.9,0,0,0-1.71,5.15c0,.3.21.78.21,1.31s-.19,1.1-.82,1.1c-1,0-2.12-1.71-2.12-4.86a33,33,0,0,1,1-7.09,4.33,4.33,0,0,0,.07-.8c0-.25,0-.52,0-.78,0-.66-.52-1.34-.87-1.38l0-.07c.08-.14.31-.18.53-.18A2.46,2.46,0,0,1,83.83,4a2.3,2.3,0,0,1-.39,1.3,15.07,15.07,0,0,0-1.32,5.09c0,.23,0,.47,0,.68a5.34,5.34,0,0,0,.23,1.83l.14,0c.56-.8,1.55-2.59,2.2-3.73Zm3.83-.23A4.59,4.59,0,0,0,87.47,12c0,1.38,1.06,2,3.46,2a10,10,0,0,0,3.13-.37c1.22.25,1.76.7,1.76,1.36s-1.2.89-4.17.89c-3.56,0-5.33-1-5.33-3.28a5.28,5.28,0,0,1,2.2-3.69ZM86.65,4.2a7.92,7.92,0,0,0,1.87.15,12.24,12.24,0,0,0,3.53-.71,5.25,5.25,0,0,1,1-.45c1.24,0,2,.5,2,1.13s-.68.71-1.44.91a19.63,19.63,0,0,1-3.85.47,4.06,4.06,0,0,1-3.19-1.27Z"/><path class="cls-1" d="M97.37,10.48a36.33,36.33,0,0,0,4-10.44l2.93.89c-.08.26-.25.39-.78.37A33.6,33.6,0,0,1,101.9,5l.74.28c-.06.19-.23.31-.6.39v12a2.44,2.44,0,0,1-1.69.62H100V8.11a17.79,17.79,0,0,1-2.33,2.54Zm16.18,4.78,2.25,1.65c-.15.26-.41.35-.93.35H103.09a1.44,1.44,0,0,0-.1-.39h5v-6H104.1a1.49,1.49,0,0,0-.1-.37h4V5.15h-4.39l-.1-.37h8.38L113,3.25l2.18,1.57c-.16.25-.41.33-1,.33h-4.1v5.37h1.4l1.08-1.46,2.06,1.5c-.15.25-.4.33-.93.33h-3.61v6h2.17ZM106.18.08c3.6.29,4.76,1.71,4.76,2.78a1.2,1.2,0,0,1-1.16,1.28,1.33,1.33,0,0,1-.82-.29A8,8,0,0,0,106.1.23Z"/><path class="cls-1" d="M129,5.58a1.25,1.25,0,0,1,1.29-.74c1.3,0,2.49,1,2.49,1.58a1,1,0,0,1-.24.58,1.53,1.53,0,0,0-.23.6c-.16.74-.39,1.89-.56,2.61,1.18.54,2.79,1.55,2.79,2.66a1,1,0,0,1-.87,1.05,1.71,1.71,0,0,1-1.3-.72,7.42,7.42,0,0,0-1.25-1c-1.05,2.62-2.93,4.45-6.59,5.31l-.17-.28a8.89,8.89,0,0,0,5.31-6.1,11.54,11.54,0,0,0-4.88-1.56c-1,2.9-2.41,5.91-4.94,5.91a2.36,2.36,0,0,1-2.39-2.64c0-2.14,2.72-4.16,6-4.32a41.23,41.23,0,0,0,1.22-5.46c0-.17,0-.23-.16-.23a8.52,8.52,0,0,0-2.6,1,1.41,1.41,0,0,1-1,.39A2.08,2.08,0,0,1,119,2.35a1.44,1.44,0,0,1,.53-1.07l0,0a1.18,1.18,0,0,0,1.29,1.13,14,14,0,0,0,3.36-.62c.43-.18.72-.64,1.07-.64.8,0,2,.91,2,1.34,0,.58-.43.6-.7,1a9.92,9.92,0,0,0-.76,2.18c-.19.75-.46,1.76-.81,2.83a17.12,17.12,0,0,1,5,1,15.57,15.57,0,0,0,.39-2.84c0-.39,0-1.07-1-1.07a2.21,2.21,0,0,0-.35,0Zm-5.83,4c-2.43.14-4.1,1.6-4.1,3.19,0,.68.2,1.11.76,1.11,1.13,0,1.9-.91,2.66-2.64A14.37,14.37,0,0,0,123.16,9.56Z"/><path class="cls-1" d="M137.15,4.65a1.66,1.66,0,0,0,1.44.7,13,13,0,0,0,2.26-.24A17.55,17.55,0,0,0,141.08,3c0-.44,0-1.08-.7-1.08a2.41,2.41,0,0,0-.78.11l-.08-.13a1.6,1.6,0,0,1,1.73-1c1.07,0,2.26.48,2.26,1.12,0,.43-.16.51-.35.82a3.77,3.77,0,0,0-.33,1l-.23.94C144.42,4,145,3.6,145.28,2.94l.17,0c1,.07,2.22.25,2.22.93s-.64,1-1.73,1.36a29.52,29.52,0,0,1-3.71,1c-.57,2.35-1.85,6.73-2.26,8-.58,2-.93,3.07-1.94,3.07-.53,0-.74-.41-.74-1.79v-.52A13.15,13.15,0,0,0,139,12a41.71,41.71,0,0,0,1.65-5.46,9.32,9.32,0,0,1-1.46.14c-1.94,0-2.15-1.34-2.15-1.93Zm8.54,6.63A3.7,3.7,0,0,0,145.2,13c0,2,2.2,2,3.85,2a7.17,7.17,0,0,0,1.17-.08c.44,0,.77-.14.95-.14.68,0,1.63.59,1.63,1.21,0,.8-1,.95-2.66.95-4,0-5.79-.89-5.79-3.09a4.18,4.18,0,0,1,1.08-2.72Zm1.38-1.66c.7-.54,1.49-1.12,2.15-1.57a8.3,8.3,0,0,0-4.16.78l-.19-.22a7.4,7.4,0,0,1,5.21-2.14c1.38,0,2.31.61,2.31,1.27s-.54.72-1.09.74a8.58,8.58,0,0,0-4,1.38Z"/><path class="cls-1" d="M155,3a.91.91,0,0,1,.6-.23,2.71,2.71,0,0,1,2.84,2.33,1.69,1.69,0,0,1-.29.88,10.46,10.46,0,0,0-.72,4.24c0,1.57.88,3.16,1.63,3.16.26,0,.45-.15,1-.85s1.55-2.39,2.33-3.71l.31.13c-1.67,4.22-2,5-2,5.41a.65.65,0,0,0,.13.39,1.41,1.41,0,0,1,.41.83c0,.6-.45.8-1.05.8-1.59,0-4.29-2.2-4.29-7.06,0-.7.17-4.39.17-4.39,0-1.25-.6-1.77-1.05-1.87ZM165.8,4.45c4.14.33,6,3.25,6,5.44,0,1-.43,1.83-1.27,1.83a.9.9,0,0,1-.93-.89c-.15-2.86-1.4-5.48-3.91-6Z"/><path class="cls-1" d="M179.6,4.88V18.29h-6.42V17.5h5.6V4.88Z"/><path class="cls-1" d="M196.35,6a1.57,1.57,0,0,1,1.2-.55,2.62,2.62,0,0,1,2.51,1.91c0,.8-.78.89-1.69,1.17a39.63,39.63,0,0,0-4.24,1.63c0,.29.06.78.06,1.13,0,2-.58,2.72-1.34,2.72-.54,0-.84-.41-.84-1,0-.08,0-.16,0-.24a13.88,13.88,0,0,0,.16-1.82c-1.65.89-2.78,1.84-2.78,3.17,0,1.12,1.05,1.49,3.24,1.49a9.35,9.35,0,0,0,3.43-.41c1.32.2,2.15.53,2.15,1.13s-.33.74-1.28.92a29.47,29.47,0,0,1-3.81.19c-3.28,0-5.09-.93-5.09-2.86s2.27-3.69,4.08-4.74c0-1.4-.43-2-1.26-2-1.48,0-3.35,1.84-4.94,4.25-.49.76-.84,1.15-1.32,1.15s-.92-.39-.92-1.19c0-.62.53-1,1.13-1.51a12.39,12.39,0,0,0,3.54-5.17c-.39,0-1,0-1.25,0a2.21,2.21,0,0,1-2.52-2.22l.15-.08a2.24,2.24,0,0,0,2.12,1.09A12.58,12.58,0,0,0,188.81,4a5.68,5.68,0,0,0,.31-1.66c0-.52-.49-.77-1-.77a1.66,1.66,0,0,0-.49.07l0,0a1.55,1.55,0,0,1,1.52-1c1.24,0,2.29.53,2.29,1.13,0,.41-.31.6-.45.93s-.25.7-.38,1c.13,0,3.09-.54,3.34-1.49,1.16,0,2.35.19,2.35,1,0,.49-.74.82-1.48,1a38.49,38.49,0,0,1-4.82,1,16.11,16.11,0,0,1-1.67,3.17l.06,0a4.75,4.75,0,0,1,3-1.46,2.34,2.34,0,0,1,2.41,2c1.69-.83,3.74-1.75,3.74-2.27,0-.33-.36-.51-.74-.51a1.75,1.75,0,0,0-.33,0Z"/><path class="cls-1" d="M206.84,1.85a1.61,1.61,0,0,1,1.46-.78c1,0,2.68.7,2.68,1.34,0,.19-.12.31-.27.53a1.4,1.4,0,0,0-.27.75c-.12.61-.31,1.58-.47,2.2,1.21-.1,2.68-.19,3.6-.31a1,1,0,0,0,.7-.35c.23-.21.44-.43.62-.43.46,0,2,1.23,2,1.6s-.21.37-.52.5-.31.27-.35.91c-.24,3.7-.94,9.26-3.62,9.26a.87.87,0,0,1-.74-.68,1.62,1.62,0,0,0-.48-1,18.45,18.45,0,0,0-2.51-1.77l.15-.29a28.75,28.75,0,0,0,3.41,1.14c1.41,0,2.06-5.6,2.06-7.79,0-.18,0-.27-.2-.27s-2.91.23-4.24.38c-1,4.05-2.8,7.76-7.75,10.27l-.26-.27A16.42,16.42,0,0,0,207.91,7a10,10,0,0,0-3,.66,1,1,0,0,1-.58.19,2.24,2.24,0,0,1-1.75-2.06c0-.25.25-.81.6-.81.14.91.74,1.12,1.81,1.12.29,0,.57,0,3.07-.15a21.91,21.91,0,0,0,.35-3c0-.87-.52-1.14-1.59-1.08Z"/><path class="cls-1" d="M219.84,10c3.3-2.72,5.11-6.92,5.11-7.93,0-.58-.74-.76-1.2-.74.19-.45.52-.64,1.18-.64.94,0,2.82.88,2.82,1.5,0,.23-.21.33-.41.46a1.53,1.53,0,0,0-.48.61,6.66,6.66,0,0,1-.49.89,2.18,2.18,0,0,0,.49.06,30.41,30.41,0,0,0,3.52-.29,1.18,1.18,0,0,0,.75-.35c.2-.18.47-.43.63-.43.48,0,2.08,1.36,2.08,1.77,0,.25-.22.35-.51.5a1.15,1.15,0,0,0-.62.55,28,28,0,0,1-2.2,4.08c.82.49,2,1.26,2,2.39a1,1,0,0,1-1.07,1c-.6,0-.95-.62-1.34-1-.21-.21-.52-.44-.76-.66a17.89,17.89,0,0,1-9,5.74l-.23-.33A20.3,20.3,0,0,0,228,10.63,13.53,13.53,0,0,0,224,8.71l.11-.33a16.51,16.51,0,0,1,4.61.93,18.09,18.09,0,0,0,2-4.45c0-.06,0-.08-.09-.08-.67,0-3.66.62-4.13.62a1.57,1.57,0,0,1-.81-.27,15,15,0,0,1-5.7,5.17Z"/><path class="cls-1" d="M246.48,1.07c0-.14.37-.29.76-.29,1,0,2.82,1.2,2.82,2,0,.43-.68.29-1.09.43-.79.23-2,.52-3,.74.37.25.72.52.72.75a.67.67,0,0,1-.18.39,15.14,15.14,0,0,0-.23,2.57c3.52-.23,3.87-.25,4.55-.86,1,.1,2.53.72,2.53,1.4,0,.51-.39.57-1,.57-.47,0-1.5-.1-2.2-.14-.45,0-1,0-1.56,0s-1.55,0-2.35.08c-.44,4.1-1.84,6.9-6.88,8.9l-.23-.29a10.17,10.17,0,0,0,5.23-8.45,27.2,27.2,0,0,0-4.71.73c-.41.16-.6.39-.89.39a2.44,2.44,0,0,1-2.1-2,1.19,1.19,0,0,1,.43-.89l.07,0c.18,1.11,1.13,1.12,2.28,1.12.58,0,2.95-.19,5-.36,0-.72.06-1.56.06-2.16s0-1.15-.25-1.36a48.61,48.61,0,0,1-6.67.75l-.08-.35a48.8,48.8,0,0,0,8.95-2.37c.7-.29.81-.4.81-.7s-.35-.44-.76-.52Z"/><path class="cls-1" d="M260.48,9.29a25.15,25.15,0,0,0-1.72,5.15c0,.3.22.78.22,1.31s-.2,1.1-.82,1.1c-1,0-2.12-1.71-2.12-4.86a33.69,33.69,0,0,1,1-7.09,3.62,3.62,0,0,0,.08-.8c0-.25,0-.52,0-.78-.06-.66-.52-1.34-.87-1.38l0-.07c.08-.14.31-.18.52-.18A2.47,2.47,0,0,1,259.31,4a2.39,2.39,0,0,1-.39,1.3,14.84,14.84,0,0,0-1.32,5.09c0,.23,0,.47,0,.68a5.34,5.34,0,0,0,.23,1.83l.14,0c.56-.8,1.55-2.59,2.19-3.73Zm3.82-.23a4.65,4.65,0,0,0-1.36,2.9c0,1.38,1.07,2,3.46,2a9.87,9.87,0,0,0,3.13-.37c1.23.25,1.77.7,1.77,1.36s-1.2.89-4.18.89c-3.55,0-5.32-1-5.32-3.28A5.3,5.3,0,0,1,264,8.83ZM262.13,4.2a7.87,7.87,0,0,0,1.86.15,12.24,12.24,0,0,0,3.54-.71,5.52,5.52,0,0,1,1-.45c1.25,0,2,.5,2,1.13s-.68.71-1.44.91a19.63,19.63,0,0,1-3.85.47A4.06,4.06,0,0,1,262,4.43Z"/><path class="cls-1" d="M274.33,2a1.57,1.57,0,0,1,1.42-.91c1.42,0,2.68.89,2.68,1.69,0,.51-.33.56-.56,1.65a49.22,49.22,0,0,0-.72,7.6c0,2.55,1.3,3.13,3.48,3.13,2.8,0,5.31-1.45,7.11-4.49l.29.16c-1.57,4.55-4.43,6.24-7.56,6.24-2.82,0-5-1.05-5-5,0-2.47.33-6.32.54-9V2.92c0-.92-.78-.92-1.13-.92a2,2,0,0,0-.5,0Z"/><path class="cls-1" d="M290.28,4.65a1.66,1.66,0,0,0,1.44.7A13,13,0,0,0,294,5.11,17.55,17.55,0,0,0,294.21,3c0-.44,0-1.08-.7-1.08a2.41,2.41,0,0,0-.78.11l-.08-.13a1.6,1.6,0,0,1,1.73-1c1.07,0,2.26.48,2.26,1.12,0,.43-.16.51-.35.82a3.77,3.77,0,0,0-.33,1l-.23.94c1.82-.63,2.39-1.05,2.68-1.71l.17,0c1,.07,2.22.25,2.22.93s-.64,1-1.73,1.36a29.52,29.52,0,0,1-3.71,1c-.57,2.35-1.85,6.73-2.26,8-.58,2-.93,3.07-1.94,3.07-.53,0-.74-.41-.74-1.79v-.52a13.15,13.15,0,0,0,1.67-3,41.71,41.71,0,0,0,1.65-5.46,9.32,9.32,0,0,1-1.46.14c-1.94,0-2.15-1.34-2.15-1.93Zm8.54,6.63a3.7,3.7,0,0,0-.49,1.69c0,2,2.2,2,3.85,2a7.17,7.17,0,0,0,1.17-.08c.44,0,.77-.14.95-.14.68,0,1.63.59,1.63,1.21,0,.8-1,.95-2.66.95-4,0-5.79-.89-5.79-3.09a4.23,4.23,0,0,1,1.08-2.72Zm1.38-1.66c.7-.54,1.49-1.12,2.15-1.57a8.3,8.3,0,0,0-4.16.78L298,8.61a7.4,7.4,0,0,1,5.21-2.14c1.38,0,2.31.61,2.31,1.27s-.54.72-1.08.74a8.58,8.58,0,0,0-4,1.38Z"/><path class="cls-1" d="M318.31,6.2A12.19,12.19,0,0,0,320,10.28a20.09,20.09,0,0,0,2.8-3.13l2.14,1.44a.46.46,0,0,1-.43.22,2,2,0,0,1-.31,0,23.8,23.8,0,0,1-3.89,2,12.26,12.26,0,0,0,5.52,4.1l-.06.22a2.45,2.45,0,0,0-2,1.69c-3.25-2.08-5.11-5.12-5.85-10.54h-.12A12.94,12.94,0,0,1,315.26,8a7.83,7.83,0,0,1,3.42,6.42,4.58,4.58,0,0,1-1,3.09,3.32,3.32,0,0,1-2.57.83c0-1.42-.66-1.67-2.06-1.88v-.26l2.39,0a.79.79,0,0,0,.6-.17,4.12,4.12,0,0,0,.62-2.49,25.83,25.83,0,0,1-9,3l-.07-.31a19.48,19.48,0,0,0,8.72-4.93,4.48,4.48,0,0,0-.23-.74,29.39,29.39,0,0,1-8,2.72L308,13a21.81,21.81,0,0,0,7.22-4.2c-.14-.2-.3-.39-.45-.59a26.68,26.68,0,0,1-6.4,2.05l-.11-.32a20.85,20.85,0,0,0,6.59-3.69h-4.3l-.1-.39h9.2l1.11-1.42,1.63,1.15c.17-.6.43-1.63.58-2.39H310.75c.07,1.61-.78,2.7-1.93,2.7-.62,0-1.11-.31-1.11-.91a1.34,1.34,0,0,1,.8-1.09,2.59,2.59,0,0,0,1.65-2.2h.29a4.92,4.92,0,0,1,.26,1.11h5V0l3,.27c0,.27-.22.43-.82.51v2h5L324,1.67l1.9,1.83c-.14.15-.35.19-.74.21a12.5,12.5,0,0,1-2.49,2l.26.17c-.16.25-.41.35-.94.35Z"/></g></g></svg>